<svg xmlns="http://www.w3.org/2000/svg" xmlns:xlink="http://www.w3.org/1999/xlink" width="140px" height="140px" version="1.1" viewBox="0 0 140 140">
<!--Generator: Sketch 53.2 (72643) - https://sketchapp.com-->
    <title>
        icons/circumstance
    </title>
    <desc>
        Created with Sketch.
    </desc>
    <g id="icons/circumstance" fill="none" fill-rule="evenodd" stroke="none" stroke-width="1">
        <rect id="Rectangle" width="140" height="140" x="0" y="0"/>
        <g id="Group-12" transform="translate(1.000000, 5.500000)">
            <path id="Path-3-Copy-3" fill="#DDFFD9" d="M43.9463353,34.709806 C43.9463353,34.709806 43.9463353,24.1297478 50.1342498,17.9580471 C56.3221642,11.7863465 75.7698954,2.08795973 96.1016144,21.4847332 C116.433333,40.8815067 123.505236,67.3316524 110.245419,78.7933821 C96.9856022,90.2551119 84.6097732,90.2551119 77.537871,104.361856 C70.4659687,118.468601 53.6702009,123.75863 40.4103842,114.060243 C27.1505674,104.361856 13.8907507,92.018455 25.3825919,73.503353 C36.874433,54.988251 43.9463353,34.709806 43.9463353,34.709806 Z" transform="translate(69.000000, 64.500000) scale(1, -1) rotate(-111.000000) translate(-69.000000, -64.500000) "/>
            <g id="Group-4" stroke="#000000" stroke-linecap="round" stroke-linejoin="round" stroke-width="3" transform="translate(36.000000, 14.157086)">
                <ellipse id="Oval-Copy-12" cx="40" cy="40" rx="8" ry="40"/>
                <ellipse id="Oval-Copy-13" cx="40" cy="40" rx="8" ry="40" transform="translate(40.000000, 40.000000) rotate(-90.000000) translate(-40.000000, -40.000000) "/>
                <ellipse id="Oval-Copy-20" cx="13" cy="44.5" fill="#FFFFFF" rx="6" ry="6.5"/>
                <ellipse id="Oval-Copy-21" cx="46" cy="16.5" fill="#FFFFFF" rx="6" ry="6.5"/>
            </g>
        </g>
    </g>
</svg>
