<svg xmlns="http://www.w3.org/2000/svg" xmlns:xlink="http://www.w3.org/1999/xlink" width="140px" height="140px" version="1.1" viewBox="0 0 140 140">
<!--Generator: Sketch 53.2 (72643) - https://sketchapp.com-->
    <title>
        icons/practice
    </title>
    <desc>
        Created with Sketch.
    </desc>
    <g id="icons/practice" fill="none" fill-rule="evenodd" stroke="none" stroke-width="1">
        <rect id="Rectangle" width="140" height="140" x="0" y="0"/>
        <g id="Group-9-Copy-2" transform="translate(22.000000, 15.000000)">
            <path id="Path-3-Copy-2" fill="#FEE3E3" d="M22.9463353,25.3954017 C22.9463353,25.3954017 22.9463353,14.8153434 29.1342498,8.64364273 C35.3221642,2.47194208 54.7698954,-7.22644466 75.1016144,12.1703288 C95.4333334,31.5671023 102.505236,58.017248 89.2454189,69.4789777 C75.9856022,80.9407075 63.6097732,80.9407075 56.537871,95.0474519 C49.4659687,109.154196 32.6702009,114.444225 19.4103842,104.745839 C6.15056744,95.0474519 -7.10924929,82.7040506 4.38259188,64.1889486 C15.874433,45.6738467 22.9463353,25.3954017 22.9463353,25.3954017 Z"/>
            <g id="Group-7" transform="translate(18.000000, 13.685596)">
                <path id="Shape-Copy" stroke="#000000" stroke-linecap="round" stroke-linejoin="round" stroke-width="3" d="M36.1585187,4.67327367 C39.2128336,1.64013349 42.8763394,0.102272727 47.0472622,0.102272727 C54.5589213,0.102272727 60.2233796,6.25131007 60.2233796,14.4055206 C60.2232609,25.3617764 45.8664449,36.4110319 30.9059606,49.2321429"/>
                <path id="Shape-Copy" stroke="#000000" stroke-linecap="round" stroke-linejoin="round" stroke-width="3" d="M6.929352,4.67327367 C9.9836669,1.64013349 13.6471728,0.102272727 17.8180955,0.102272727 C25.3297546,0.102272727 30.994213,6.25131007 30.994213,14.4055206 C30.9940943,25.3617764 16.6372782,36.4110319 1.67679398,49.2321429" transform="translate(16.335503, 24.667208) scale(-1, 1) translate(-16.335503, -24.667208) "/>
                <g id="Group-11">
                    <path id="Stroke-1" stroke="#000000" stroke-linecap="round" stroke-linejoin="round" stroke-width="3" d="M5.97612199,82.4210498 C5.97612199,89.6593074 11.7815946,95.5233983 18.9420815,95.5233983 C26.1025684,95.5233983 30.9059606,89.6593074 30.9059606,82.4210498 L30.9059606,47.878272"/>
                    <path id="Stroke-3" fill="#FFFFFF" stroke="#000000" stroke-linecap="round" stroke-linejoin="round" stroke-width="3" d="M12.7179846,77.036325 C12.7179846,80.5856432 9.87221223,83.4613503 6.3598407,83.4613503 C2.84746917,83.4613503 0.00169679784,80.5856432 0.00169679784,77.036325 C0.00169679784,73.4870069 2.84746917,70.6112998 6.3598407,70.6112998 C9.87221223,70.6112998 12.7179846,73.4870069 12.7179846,77.036325 Z"/>
                    <path id="Fill-7" fill="#000000" d="M28.8097681,4.13414141 C28.8097681,6.36073232 27.0232824,8.1660101 24.8198692,8.1660101 C22.614032,8.1660101 20.8275463,6.36073232 20.8275463,4.13414141 C20.8275463,1.90755051 22.614032,0.102272727 24.8198692,0.102272727 C27.0232824,0.102272727 28.8097681,1.90755051 28.8097681,4.13414141"/>
                    <path id="Fill-9" fill="#000000" d="M40.2472681,4.13414141 C40.2472681,6.36073232 38.4607824,8.1660101 36.2573692,8.1660101 C34.051532,8.1660101 32.2650463,6.36073232 32.2650463,4.13414141 C32.2650463,1.90755051 34.051532,0.102272727 36.2573692,0.102272727 C38.4607824,0.102272727 40.2472681,1.90755051 40.2472681,4.13414141"/>
                </g>
            </g>
        </g>
    </g>
</svg>
